<svg role="img" viewBox="0 0 9.8271885 9.6465731" xmlns="http://www.w3.org/2000/svg">
  <title>MySQL</title>
  <path
     fill="#4479A1"
     d="M 0.58500121,8.8823145e-5 C 0.35098241,-0.00319118 0.14703231,0.08388582 0.04203251,0.34188572 c -0.1799999,0.433997 0.2668751,0.86203238 0.421875,1.08203118 0.1149998,0.1529994 0.2598488,0.3280012 0.3398437,0.5 0.047,0.1159994 0.05847,0.2364225 0.1054687,0.3574219 0.10599989,0.2939982 0.20765679,0.6214855 0.34765679,0.8964845 0.073,0.139999 0.154046,0.28611 0.248046,0.412109 0.054,0.073 0.145016,0.108517 0.166016,0.228516 -0.094,0.135999 -0.100297,0.334001 -0.154297,0.5 -0.24,0.756995 -0.144687,1.693002 0.195313,2.25 0.107,0.166 0.362125,0.533578 0.703125,0.392578 0.299994,-0.12 0.232359,-0.500939 0.318359,-0.835937 0.02,-0.08 0.0078,-0.133502 0.04883,-0.1875 v 0.01562 c 0.094,0.187999 0.187438,0.366688 0.273438,0.554688 0.205994,0.328 0.566187,0.66949 0.867187,0.896484 0.16,0.12 0.286328,0.326391 0.486328,0.400391 v -0.01953 h -0.01367 c -0.043,-0.058 -0.100297,-0.08581 -0.154297,-0.132813 a 3.445,3.445 0 0 1 -0.349609,-0.40039 8.76,8.76 0 0 1 -0.748047,-1.216797 c -0.11,-0.209999 -0.201062,-0.437533 -0.289062,-0.644532 -0.04,-0.08 -0.04042,-0.198281 -0.107422,-0.238281 -0.1,0.146 -0.247313,0.271173 -0.320313,0.451172 -0.126994,0.287999 -0.1395,0.643719 -0.1875,1.011719 -0.027,0.007 -0.01434,-3.18e-4 -0.02734,0.01367 -0.214,-0.052 -0.287188,-0.274938 -0.367188,-0.460938 -0.2,-0.474995 -0.233532,-1.238159 -0.06055,-1.785156 0.04698,-0.139994 0.247969,-0.580844 0.167969,-0.714844 -0.042,-0.126999 -0.173094,-0.199734 -0.246094,-0.302734 A 2.478,2.478 0 0 1 1.4658607,2.9375893 C 1.3058607,2.5635909 1.2257977,2.1494776 1.0517977,1.7754794 0.97179821,1.6024806 0.83181361,1.4208069 0.71781371,1.2618075 0.59081381,1.0818087 0.44967301,0.95527512 0.34867311,0.74227632 c -0.033,-0.073 -0.080344,-0.1934381 -0.027344,-0.2734375 0.014,-0.054 0.043703,-0.074844 0.095703,-0.089844 0.088,-0.072 0.334875,0.0225 0.421875,0.0625 0.24699959,0.1 0.45510959,0.1939855 0.66210959,0.3339843 0.094,0.066 0.194453,0.1916094 0.314453,0.22460938 h 0.140625 c 0.214,0.047 0.454297,0.015219 0.654297,0.074219 0.355,0.1139994 0.673938,0.2789856 0.960938,0.4589844 a 5.953,5.953 0 0 1 2.085937,2.2871094 c 0.08,0.153999 0.1145,0.295079 0.1875,0.455078 0.14,0.329999 0.313078,0.661471 0.455078,0.980469 0.14,0.314999 0.275563,0.637441 0.476563,0.898437 0.1,0.14 0.501646,0.212157 0.68164,0.285157 0.133,0.06 0.340938,0.1145 0.460938,0.1875 0.23,0.139994 0.453922,0.301078 0.669922,0.455078 0.11,0.076 0.44289,0.241953 0.46289,0.376953 -0.534994,-0.014 -0.949875,0.0395 -1.296875,0.1875 -0.1,0.04 -0.26139,0.04097 -0.27539,0.167969 0.055,0.053 0.06433,0.140843 0.111328,0.214843 0.08,0.134 0.217703,0.31225 0.345703,0.40625 0.14,0.11 0.278781,0.216547 0.425781,0.310547 0.26,0.16 0.555547,0.255016 0.810547,0.416016 0.145,0.094 0.292453,0.2125 0.439453,0.3125 0.073,0.05 0.120844,0.139875 0.214844,0.171875 v -0.01953 c -0.046,-0.06 -0.06047,-0.147844 -0.105469,-0.214844 -0.067,-0.067 -0.133219,-0.12736 -0.199219,-0.193359 a 3.223,3.223 0 0 0 -0.695312,-0.67383 c -0.214,-0.145994 -0.681531,-0.350703 -0.769531,-0.595703 l -0.01367,-0.01367 c 0.146,-0.013 0.320943,-0.06547 0.460937,-0.105468 0.227,-0.06 0.434922,-0.04842 0.669922,-0.107422 0.106,-0.027 0.213313,-0.05975 0.320313,-0.09375 v -0.0586 c -0.12,-0.12 -0.211938,-0.284484 -0.335938,-0.396484 a 8.867,8.867 0 0 0 -1.103517,-0.822262 c -0.21,-0.134 -0.476266,-0.219985 -0.697266,-0.333984 -0.08,-0.04 -0.213766,-0.05995 -0.259766,-0.126954 -0.12,-0.145999 -0.19039,-0.339673 -0.27539,-0.513671 a 17.69,17.69 0 0 1 -0.546875,-1.164063 c -0.12,-0.261998 -0.192844,-0.521721 -0.339844,-0.761719 -0.689994,-1.1369934 -1.436949,-1.8260038 -2.585937,-2.49999958 -0.247,-0.1399994 -0.542475,-0.2013912 -0.855469,-0.2753906 -0.167,-0.008 -0.334,-0.018391 -0.5,-0.025391 -0.11,-0.047 -0.216547,-0.1753287 -0.310547,-0.2363281 C 1.4471107,0.26415192 0.97503981,0.00555602 0.58500121,8.8823145e-5 Z M 2.2334387,1.6465732 l -0.002,0.00391 c -0.115,0 -0.192438,0.01225 -0.273438,0.03125 v 0.013668 h 0.01367 c 0.054,0.1039994 0.146844,0.1804381 0.214844,0.2734375 0.054,0.1069994 0.100297,0.2143131 0.154297,0.3203125 l 0.01367,-0.015625 c 0.094,-0.066 0.140625,-0.1710324 0.140625,-0.3320312 -0.04,-0.047 -0.04608,-0.094625 -0.08008,-0.140625 -0.04,-0.067 -0.127641,-0.1012975 -0.181641,-0.1542969 z" />
</svg>
